<svg xmlns="http://www.w3.org/2000/svg" width="269.991" height="76.139" viewBox="0 0 269.991 76.139">
  <g id="Layer_1" data-name="Layer 1" transform="translate(0.02 -0.008)">
    <g id="Group_2" data-name="Group 2" transform="translate(0.48 1.6)">
      <g id="Group_1" data-name="Group 1" transform="translate(0 0.85)">
        <path id="Path_1" data-name="Path 1" d="M25.936,63.51a14.484,14.484,0,0,0,8.707-2.881,20.315,20.315,0,0,0,6.406-8.188l.871.477-.29.394A20.364,20.364,0,0,1,34.975,61.4a15.478,15.478,0,0,1-9.059,2.881q-12.314,0-18.885-6.7T.48,38.282c0-8.4,2.073-14.884,6.219-19.4S17.022,12.1,25.232,12.1a24.926,24.926,0,0,1,4.623.435,14.8,14.8,0,0,1,4.519,1.679,17.746,17.746,0,0,1,4.291,3.524,26.822,26.822,0,0,1,3.9,5.825c.062.124.1.249.145.332.041.1.083.207.145.332v.1a6.575,6.575,0,0,1,.332,3.939,6.417,6.417,0,0,1-6.8,5,6.2,6.2,0,0,1-4.436-2.218,6.13,6.13,0,0,1-1.638-4.726,6.2,6.2,0,0,1,2.218-4.436,6.49,6.49,0,0,1,3.462-1.6,6.244,6.244,0,0,1,3.669.622,18.38,18.38,0,0,0-6.737-6.26,16.206,16.206,0,0,0-7.027-1.638,13.355,13.355,0,0,0-11.94,6.447Q9.819,25.927,9.808,38.24t4.146,18.781a13.313,13.313,0,0,0,11.94,6.447Zm-3.462-41.9.684-.684.684.684-.684,1.824Z" transform="translate(-0.48 8.816)" fill="#fff" stroke="#000" stroke-miterlimit="10" stroke-width="1"/>
        <path id="Path_2" data-name="Path 2" d="M73.2,62.427a9.941,9.941,0,0,1-2.985,1.741,11.171,11.171,0,0,1-4.229.663c-3.089,0-5.328-.663-6.737-2.032a8.4,8.4,0,0,1-2.508-4.333,9.442,9.442,0,0,1-.58-3.566V50.093A18.059,18.059,0,0,1,50.772,60.5a14.231,14.231,0,0,1-9.909,3.752,37.533,37.533,0,0,1-7.608-.684,15.1,15.1,0,0,1-5.39-2.114,7.951,7.951,0,0,1-3.856-7.214,13.819,13.819,0,0,1,1.2-5.825,12.879,12.879,0,0,1,3.42-4.519,16.217,16.217,0,0,1,5.307-2.944,20.96,20.96,0,0,1,6.841-1.057q8.085,0,11.754-3.317T56.2,25.942q0-6.934-2.881-10.406c-1.741-2.052-4.229-3.089-7.5-3.089A16.982,16.982,0,0,0,37.63,14.52a19.859,19.859,0,0,0-6.551,5.721,5.963,5.963,0,0,1,4.146-.622A6.571,6.571,0,0,1,38.977,21.8a6.2,6.2,0,0,1,1.638,4.768A6.593,6.593,0,0,1,38.4,31.145a6.577,6.577,0,0,1-10.78-4,6.523,6.523,0,0,1,.394-3.524,16.879,16.879,0,0,1,6.924-9.059A20.424,20.424,0,0,1,45.818,11.68q18.875,0,18.885,18.014V58.2c0,1.866.29,3.109.871,3.752a3.191,3.191,0,0,0,2.508.954A6.177,6.177,0,0,0,70.3,62.51a9.746,9.746,0,0,0,2.218-1.161l.767,1.057ZM56.162,30.834l-.394,1.057a10.064,10.064,0,0,1-4.581,6.551c-2.28,1.347-5.514,2.032-9.681,2.032a7.627,7.627,0,0,0-6.551,3.711c-1.679,2.467-2.508,5.721-2.508,9.764,0,3.151.684,5.514,2.032,7.131,1.472,1.8,3.731,2.695,6.737,2.695a13.127,13.127,0,0,0,10.261-4.519c2.653-3.027,4.229-7.09,4.664-12.231V30.855Zm-9.536-9.246-.684,1.824-.684-1.824.684-.684Z" transform="translate(24.767 8.366)" fill="#fff" stroke="#000" stroke-miterlimit="10" stroke-width="1"/>
        <path id="Path_3" data-name="Path 3" d="M65.1,74.15H65l-.1.187H48.624s-.041-.1-.1-.1v-.1H49a2.674,2.674,0,0,0,1.493-.394,3.107,3.107,0,0,0,1.1-1.451,11.176,11.176,0,0,0,.726-2.985,40.571,40.571,0,0,0,.249-5.017V12.043a40.812,40.812,0,0,0-.249-5.017A10.96,10.96,0,0,0,51.588,4a3.172,3.172,0,0,0-1.1-1.493A2.855,2.855,0,0,0,49,2.114H48.52v-.1H61.041V64.324a39.248,39.248,0,0,0,.249,4.954,13.33,13.33,0,0,0,.684,2.985,2.815,2.815,0,0,0,1.1,1.493,2.988,2.988,0,0,0,1.451.394Z" transform="translate(51.066 -2.01)" fill="#fff" stroke="#000" stroke-miterlimit="10" stroke-width="1"/>
        <path id="Path_4" data-name="Path 4" d="M74.114,74.15h-.1l-.1.187H57.634s-.041-.1-.1-.1v-.1h.477a2.674,2.674,0,0,0,1.493-.394,3.107,3.107,0,0,0,1.1-1.451,11.176,11.176,0,0,0,.726-2.985,40.577,40.577,0,0,0,.249-5.017V12.043a40.811,40.811,0,0,0-.249-5.017A10.961,10.961,0,0,0,60.6,4a3.172,3.172,0,0,0-1.1-1.493,2.855,2.855,0,0,0-1.493-.394H57.53v-.1H70.051V64.324a39.249,39.249,0,0,0,.249,4.954,13.329,13.329,0,0,0,.684,2.985,2.815,2.815,0,0,0,1.1,1.493,2.988,2.988,0,0,0,1.451.394Z" transform="translate(60.734 -2.01)" fill="#fff" stroke="#000" stroke-miterlimit="10" stroke-width="1"/>
        <path id="Path_5" data-name="Path 5" d="M83.82,63.345v.1l-.1.1H67.444l-.1-.1v-.1h.58a2.47,2.47,0,0,0,1.389-.394,3.107,3.107,0,0,0,1.1-1.451,11.179,11.179,0,0,0,.726-2.985,40.582,40.582,0,0,0,.249-5.017V22.113a40.815,40.815,0,0,0-.249-5.017,10.962,10.962,0,0,0-.726-3.027,3.172,3.172,0,0,0-1.1-1.493,2.7,2.7,0,0,0-1.389-.394h-.58l.1-.1H79.861V53.5a40.8,40.8,0,0,0,.249,5.017,12.291,12.291,0,0,0,.684,2.985,2.957,2.957,0,0,0,1.1,1.451,2.988,2.988,0,0,0,1.451.394Z" transform="translate(71.26 8.795)" fill="#fff" stroke="#000" stroke-miterlimit="10" stroke-width="1"/>
        <path id="Path_6" data-name="Path 6" d="M110.486,39.807a13.39,13.39,0,0,1,4.809,10.3,13.038,13.038,0,0,1-1.389,6.074,13.864,13.864,0,0,1-3.939,4.664,18.189,18.189,0,0,1-6.157,3.027,28.187,28.187,0,0,1-7.94,1.057,22.371,22.371,0,0,1-18.2-9.349,6.112,6.112,0,0,1-1.389-4.623,6.451,6.451,0,0,1,2.177-4.333,6.426,6.426,0,0,1,9.246.663,6.293,6.293,0,0,1,1.534,4.726,6.2,6.2,0,0,1-2.218,4.436,6.635,6.635,0,0,1-2.944,1.493,5.949,5.949,0,0,1-3.13-.145c.456.456.891.871,1.347,1.244A10.387,10.387,0,0,0,83.744,60.1a20.674,20.674,0,0,0,12.127,3.856,9.66,9.66,0,0,0,7.857-3.566,14.42,14.42,0,0,0,2.944-9.432,6.876,6.876,0,0,0-3.317-5.721,20.45,20.45,0,0,0-9.2-3.13Q85.662,41.051,80.966,36.8A13.64,13.64,0,0,1,76.24,26.208,13.8,13.8,0,0,1,77.546,20.2a13.048,13.048,0,0,1,3.711-4.664,17.644,17.644,0,0,1,5.721-2.985,24.18,24.18,0,0,1,7.359-1.057,20.992,20.992,0,0,1,6.592,1.016,14.62,14.62,0,0,1,5.721,3.524,3.564,3.564,0,0,1,.684.684,6.13,6.13,0,0,1,1.638,4.726,6.454,6.454,0,0,1-2.218,4.519,6.211,6.211,0,0,1-4.726,1.534,6.454,6.454,0,0,1-4.519-2.218,6.211,6.211,0,0,1-1.534-4.726,6.494,6.494,0,0,1,2.218-4.519,5.892,5.892,0,0,1,2.363-1.347,6.357,6.357,0,0,1,2.653-.187,17.482,17.482,0,0,0-8.852-2.218,8.5,8.5,0,0,0-7.131,3.607c-1.8,2.4-2.695,5.6-2.695,9.577a6.943,6.943,0,0,0,3.027,5.68,18.3,18.3,0,0,0,8.624,3.089q9.328,1.337,14.345,5.576Zm-19.838-18.2.767-.684.58.684-.58,1.824Z" transform="translate(80.81 8.162)" fill="#fff" stroke="#000" stroke-miterlimit="10" stroke-width="1"/>
        <path id="Path_7" data-name="Path 7" d="M112.853,24.934V68.259c0,1.41.041,2.508.1,3.275a11.947,11.947,0,0,0,.187,1.534c.062.249.187.394.394.394h5.68v.767h-6.26a15.455,15.455,0,0,1-4.809-.58,4.549,4.549,0,0,1-2.55-1.928,8.255,8.255,0,0,1-1.016-3.566c-.124-1.472-.187-3.3-.187-5.493V24.934H96.02v-.767h8.375V9.137l8.479-7.027V24.167h6.364v.767h-6.364Z" transform="translate(102.033 -1.903)" fill="#fff" stroke="#000" stroke-miterlimit="10" stroke-width="1"/>
        <path id="Path_8" data-name="Path 8" d="M130.982,11.59q10.821,0,16.542,6.841,5.753,6.841,5.742,19.735T147.524,57.9q-5.753,6.841-16.542,6.841c-7.193,0-12.707-2.28-16.5-6.841s-5.7-11.132-5.7-19.735,1.907-15.174,5.7-19.735,9.287-6.841,16.5-6.841Zm0,52.675c4.229,0,7.463-2.239,9.743-6.7s3.4-10.925,3.4-19.4-1.057-14.345-3.172-18.781q-3.358-7.307-9.971-7.318c-4.415,0-7.442,2.239-9.681,6.7s-3.358,10.925-3.358,19.4S119,52.614,121.114,57.051q3.265,7.214,9.888,7.214Zm.684-42.372.684.684-.684,1.824-.684-1.824Z" transform="translate(115.725 8.269)" fill="#fff" stroke="#000" stroke-miterlimit="10" stroke-width="1"/>
      </g>
      <path id="Path_9" data-name="Path 9" d="M86.148,9.332,85.4,1.6a11.324,11.324,0,0,1-4.934,4.187c-1.969.974-4.042,1.658-5.991,2.653a12.574,12.574,0,0,0-3.5,2.55,7.843,7.843,0,0,0-1.244,1.721,8.32,8.32,0,0,0-.808,2.218c-.062.352-.5,2.674.415,4.022a6.94,6.94,0,0,1,1.285-1.016A10.751,10.751,0,0,1,72.964,16.9a15.612,15.612,0,0,0,3.255-1.41,5.909,5.909,0,0,0,2.342-1.928,4.939,4.939,0,0,0,.352-2.26C79,9.457,80.323,8.855,82,8.814c.083,0,.726-.041.788.041.041.083-.373.083-.435.083a2.084,2.084,0,0,0-1.969,1.368,10.529,10.529,0,0,0-.249,2.28c-.228,1.7-1.949,2.571-3.338,3.3-1.638.871-3.524,1.14-5.1,2.156a6.99,6.99,0,0,0-1.679,1.534c.85.435,2.094-.083,5.929-.435,3.628-.332,3.959-.1,5.473-.6a6.919,6.919,0,0,0,4.208-3.358c.871-1.783.7-3.876.518-5.846Z" transform="translate(72.788 -1.6)" fill="#1c6758" stroke="#000" stroke-miterlimit="10" stroke-width="1"/>
    </g>
  </g>
</svg>
