<svg xmlns="http://www.w3.org/2000/svg" width="269.991" height="76.139" viewBox="0 0 269.991 76.139">
  <g id="Layer_1" data-name="Layer 1" transform="translate(0.02 -0.008)">
    <g id="Group_2" data-name="Group 2" transform="translate(0.48 1.6)">
      <g id="Group_1" data-name="Group 1" transform="translate(0 0.85)">
        <path id="Path_1" data-name="Path 1" d="M25.936,63.51a14.484,14.484,0,0,0,8.707-2.881,20.315,20.315,0,0,0,6.406-8.188l.871.477-.29.394A20.364,20.364,0,0,1,34.975,61.4a15.478,15.478,0,0,1-9.059,2.881q-12.314,0-18.885-6.7T.48,38.282c0-8.4,2.073-14.884,6.219-19.4S17.022,12.1,25.232,12.1a24.926,24.926,0,0,1,4.623.435,14.8,14.8,0,0,1,4.519,1.679,17.746,17.746,0,0,1,4.291,3.524,26.822,26.822,0,0,1,3.9,5.825c.062.124.1.249.145.332.041.1.083.207.145.332v.1a6.575,6.575,0,0,1,.332,3.939,6.417,6.417,0,0,1-6.8,5,6.2,6.2,0,0,1-4.436-2.218,6.13,6.13,0,0,1-1.638-4.726,6.2,6.2,0,0,1,2.218-4.436,6.49,6.49,0,0,1,3.462-1.6,6.244,6.244,0,0,1,3.669.622,18.38,18.38,0,0,0-6.737-6.26,16.206,16.206,0,0,0-7.027-1.638,13.355,13.355,0,0,0-11.94,6.447Q9.819,25.927,9.808,38.24t4.146,18.781a13.313,13.313,0,0,0,11.94,6.447Zm-3.462-41.9.684-.684.684.684-.684,1.824Z" transform="translate(-0.48 8.816)" fill="#f2ac57"/>
        <path id="Path_1_-_Outline" data-name="Path 1 - Outline" d="M25.916,64.777a33.121,33.121,0,0,1-11.048-1.705,21.337,21.337,0,0,1-8.194-5.14,21.768,21.768,0,0,1-5.032-8.362A35.288,35.288,0,0,1-.02,38.282,37.243,37.243,0,0,1,1.559,26.974a22.471,22.471,0,0,1,4.772-8.433,19.9,19.9,0,0,1,7.939-5.216A32,32,0,0,1,25.232,11.6a25.434,25.434,0,0,1,4.716.444,15.333,15.333,0,0,1,4.672,1.735A18.312,18.312,0,0,1,39.033,17.4a27.124,27.124,0,0,1,3.973,5.933l0,.006c.043.085.076.167.1.233.016.039.032.078.042.1l.017.038c.039.1.075.188.128.294l.053.106v.126a7.111,7.111,0,0,1,.32,4.139,6.92,6.92,0,0,1-6.7,5.414c-.2,0-.413-.008-.621-.025a6.71,6.71,0,0,1-4.774-2.385,6.642,6.642,0,0,1-1.762-5.092A6.711,6.711,0,0,1,32.2,21.506a6.944,6.944,0,0,1,3.724-1.713,7.151,7.151,0,0,1,.912-.059,6.65,6.65,0,0,1,1.437.156A16.409,16.409,0,0,0,32.707,15.1a15.721,15.721,0,0,0-6.812-1.589,12.932,12.932,0,0,0-11.52,6.217c-2.7,4.22-4.067,10.448-4.067,18.511s1.368,14.291,4.067,18.512a12.748,12.748,0,0,0,11.519,6.216H26.1l.04.04a14.067,14.067,0,0,0,8.207-2.785,19.9,19.9,0,0,0,6.245-7.992l.224-.488,1.843,1.009-.6.817a20.974,20.974,0,0,1-6.8,8.236A16.026,16.026,0,0,1,25.916,64.777Zm-2-52.157c-7.379.233-13.042,2.449-16.846,6.6C3.028,23.62.98,30.034.98,38.282S3.136,52.9,7.388,57.231c3.633,3.7,8.7,5.849,15.088,6.4A13.553,13.553,0,0,1,18.77,62.3a14.312,14.312,0,0,1-5.237-5.011A25.013,25.013,0,0,1,10.359,49.2,51.368,51.368,0,0,1,9.308,38.24a51.368,51.368,0,0,1,1.051-10.96,25.013,25.013,0,0,1,3.174-8.091A13.7,13.7,0,0,1,23.914,12.621Zm12.924,8.112a6.148,6.148,0,0,0-.784.051,5.974,5.974,0,0,0-3.2,1.479,5.67,5.67,0,0,0-2.045,4.092,5.605,5.605,0,0,0,1.509,4.356l.009.01a5.67,5.67,0,0,0,4.092,2.046h.006c.183.015.367.022.544.022a5.92,5.92,0,0,0,5.726-4.625,6.05,6.05,0,0,0-.307-3.646l-.036-.09V24.34c-.041-.089-.073-.169-.1-.242-.023-.048-.042-.1-.063-.147s-.045-.11-.07-.161a26.152,26.152,0,0,0-3.82-5.713,17.323,17.323,0,0,0-4.168-3.427,14.639,14.639,0,0,0-3.511-1.432,17.838,17.838,0,0,1,2.52.98,18.92,18.92,0,0,1,6.931,6.424l1.144,1.623-1.776-.888A5.766,5.766,0,0,0,36.838,20.733Zm-13.679,4.13-1.265-3.374,1.265-1.265,1.265,1.265Z" transform="translate(-0.48 8.816)"/>
        <path id="Path_2" data-name="Path 2" d="M73.2,62.427a9.941,9.941,0,0,1-2.985,1.741,11.171,11.171,0,0,1-4.229.663c-3.089,0-5.328-.663-6.737-2.032a8.4,8.4,0,0,1-2.508-4.333,9.442,9.442,0,0,1-.58-3.566V50.093A18.059,18.059,0,0,1,50.772,60.5a14.231,14.231,0,0,1-9.909,3.752,37.533,37.533,0,0,1-7.608-.684,15.1,15.1,0,0,1-5.39-2.114,7.951,7.951,0,0,1-3.856-7.214,13.819,13.819,0,0,1,1.2-5.825,12.879,12.879,0,0,1,3.42-4.519,16.217,16.217,0,0,1,5.307-2.944,20.96,20.96,0,0,1,6.841-1.057q8.085,0,11.754-3.317T56.2,25.942q0-6.934-2.881-10.406c-1.741-2.052-4.229-3.089-7.5-3.089A16.982,16.982,0,0,0,37.63,14.52a19.859,19.859,0,0,0-6.551,5.721,5.963,5.963,0,0,1,4.146-.622A6.571,6.571,0,0,1,38.977,21.8a6.2,6.2,0,0,1,1.638,4.768A6.593,6.593,0,0,1,38.4,31.145a6.577,6.577,0,0,1-10.78-4,6.523,6.523,0,0,1,.394-3.524,16.879,16.879,0,0,1,6.924-9.059A20.424,20.424,0,0,1,45.818,11.68q18.875,0,18.885,18.014V58.2c0,1.866.29,3.109.871,3.752a3.191,3.191,0,0,0,2.508.954A6.177,6.177,0,0,0,70.3,62.51a9.746,9.746,0,0,0,2.218-1.161l.767,1.057ZM56.162,30.834l-.394,1.057a10.064,10.064,0,0,1-4.581,6.551c-2.28,1.347-5.514,2.032-9.681,2.032a7.627,7.627,0,0,0-6.551,3.711c-1.679,2.467-2.508,5.721-2.508,9.764,0,3.151.684,5.514,2.032,7.131,1.472,1.8,3.731,2.695,6.737,2.695a13.127,13.127,0,0,0,10.261-4.519c2.653-3.027,4.229-7.09,4.664-12.231V30.855Zm-9.536-9.246-.684,1.824-.684-1.824.684-.684Z" transform="translate(24.767 8.366)" fill="#f2ac57"/>
        <path id="Path_2_-_Outline" data-name="Path 2 - Outline" d="M65.988,65.331c-3.256,0-5.572-.709-7.079-2.166a8.832,8.832,0,0,1-2.643-4.541,10,10,0,0,1-.6-3.723V53.878a17.144,17.144,0,0,1-4.553,6.991,14.759,14.759,0,0,1-10.245,3.882,38.107,38.107,0,0,1-7.71-.695,15.653,15.653,0,0,1-5.559-2.184,8.432,8.432,0,0,1-4.084-7.634A14.364,14.364,0,0,1,24.758,48.2a13.416,13.416,0,0,1,3.552-4.693,16.78,16.78,0,0,1,5.469-3.035,21.553,21.553,0,0,1,7-1.084c5.244,0,9.086-1.072,11.418-3.187S55.7,30.644,55.7,25.942c0-4.481-.93-7.874-2.764-10.085-1.663-1.958-3.992-2.911-7.121-2.911a16.55,16.55,0,0,0-7.951,2.013,19.2,19.2,0,0,0-5.243,4.173,6.313,6.313,0,0,1,1.326-.14,7.206,7.206,0,0,1,1.371.136,7.064,7.064,0,0,1,4.03,2.335A6.7,6.7,0,0,1,41.113,26.6a7.089,7.089,0,0,1-2.381,4.918l-.018.016A6.958,6.958,0,0,1,34.2,33.2c-.2,0-.406-.008-.611-.025a6.991,6.991,0,0,1-4.81-2.381l-.007-.008a6.928,6.928,0,0,1-1.651-3.571,7.033,7.033,0,0,1,.422-3.778,17.4,17.4,0,0,1,7.128-9.3A21.016,21.016,0,0,1,45.818,11.18c12.863,0,19.385,6.229,19.385,18.514V58.2c0,2.145.4,3.042.742,3.417a2.712,2.712,0,0,0,2.137.789,5.689,5.689,0,0,0,2.04-.361,9.243,9.243,0,0,0,2.107-1.1l.4-.286,1.492,2.057-.681.17a10.712,10.712,0,0,1-3.037,1.749A11.586,11.586,0,0,1,65.988,65.331ZM56.237,50.053l.425.039V54.9a8.971,8.971,0,0,0,.543,3.375l.014.033.009.035a7.876,7.876,0,0,0,2.358,4.083l.014.013c1.311,1.272,3.4,1.89,6.389,1.89a10.636,10.636,0,0,0,4.037-.625l0,0a10.3,10.3,0,0,0,2.556-1.41l-.19-.263a10.5,10.5,0,0,1-1.921.946,6.681,6.681,0,0,1-2.394.426A3.7,3.7,0,0,1,65.2,62.285c-.673-.745-1-2.082-1-4.087v-28.5c0-5.831-1.537-10.254-4.569-13.146-2.486-2.371-6.048-3.786-10.618-4.222A8.907,8.907,0,0,1,53.7,15.212l0,0a12.033,12.033,0,0,1,2.261,4.526,23.484,23.484,0,0,1,.736,6.2,23.55,23.55,0,0,1-.311,3.955l1.04-1.039-.79,2.122,0,16.087A29.53,29.53,0,0,1,56.237,50.053ZM38.627,40.488a19.21,19.21,0,0,0-4.525.936,15.788,15.788,0,0,0-5.147,2.853,12.423,12.423,0,0,0-3.289,4.346,13.373,13.373,0,0,0-1.157,5.617,7.488,7.488,0,0,0,3.62,6.789l.016.011a14.662,14.662,0,0,0,5.212,2.039,30.868,30.868,0,0,0,3.849.535A7.3,7.3,0,0,1,34.093,61.4c-1.424-1.71-2.146-4.216-2.146-7.449,0-4.136.873-7.515,2.595-10.045A8.771,8.771,0,0,1,38.627,40.488Zm17.015-6.6a10.016,10.016,0,0,1-4.2,4.988c-2.359,1.394-5.7,2.1-9.935,2.1a7.1,7.1,0,0,0-6.137,3.492c-1.607,2.361-2.422,5.551-2.422,9.482,0,2.994.645,5.286,1.916,6.811l0,0c1.36,1.666,3.5,2.511,6.35,2.511A12.7,12.7,0,0,0,51.1,58.923c2.587-2.951,4.115-6.962,4.538-11.92ZM29.525,30.129a6.021,6.021,0,0,0,4.139,2.051h.006c.179.015.358.022.532.022a5.981,5.981,0,0,0,3.868-1.436,6.119,6.119,0,0,0,2.046-4.237,5.732,5.732,0,0,0-1.509-4.4l-.006-.007a6.085,6.085,0,0,0-3.473-2.015,6.2,6.2,0,0,0-1.179-.118,5.346,5.346,0,0,0-2.63.687l-2.005,1.1q-.455.957-.832,2.01l-.009.023a6.045,6.045,0,0,0-.361,3.258A5.942,5.942,0,0,0,29.525,30.129ZM40.013,12.921A18.479,18.479,0,0,0,35.2,14.988a15.609,15.609,0,0,0-5.878,6.785l1.36-1.83a20.464,20.464,0,0,1,6.714-5.863A17.935,17.935,0,0,1,40.013,12.921Zm5.929,11.916-1.265-3.374L45.942,20.2l1.265,1.265Z" transform="translate(24.767 8.366)"/>
        <path id="Path_3" data-name="Path 3" d="M65.1,74.15H65l-.1.187H48.624s-.041-.1-.1-.1v-.1H49a2.674,2.674,0,0,0,1.493-.394,3.107,3.107,0,0,0,1.1-1.451,11.176,11.176,0,0,0,.726-2.985,40.571,40.571,0,0,0,.249-5.017V12.043a40.812,40.812,0,0,0-.249-5.017A10.96,10.96,0,0,0,51.588,4a3.172,3.172,0,0,0-1.1-1.493A2.855,2.855,0,0,0,49,2.114H48.52v-.1H61.041V64.324a39.248,39.248,0,0,0,.249,4.954,13.33,13.33,0,0,0,.684,2.985,2.815,2.815,0,0,0,1.1,1.493,2.988,2.988,0,0,0,1.451.394Z" transform="translate(51.066 -2.01)" fill="#f2ac57"/>
        <path id="Path_3_-_Outline" data-name="Path 3 - Outline" d="M65.191,74.837H48.285l-.041-.1H48.02v-1.1H49a2.178,2.178,0,0,0,1.22-.313l.015-.01a2.561,2.561,0,0,0,.9-1.224,10.714,10.714,0,0,0,.687-2.847,39.868,39.868,0,0,0,.245-4.953V12.043a40.451,40.451,0,0,0-.245-4.953,10.479,10.479,0,0,0-.684-2.883l0,0a2.747,2.747,0,0,0-.9-1.267A2.365,2.365,0,0,0,49,2.614H48.02V1.51H61.541V64.324a38.888,38.888,0,0,0,.244,4.888,12.915,12.915,0,0,0,.655,2.87,2.4,2.4,0,0,0,.877,1.237,2.489,2.489,0,0,0,1.207.33H65.85Zm-14.024-1h11.2a3.928,3.928,0,0,1-.855-1.392,13.873,13.873,0,0,1-.714-3.1,39.836,39.836,0,0,1-.253-5.021V2.51H51.262A4.829,4.829,0,0,1,52.044,3.8a11.235,11.235,0,0,1,.765,3.168,41.407,41.407,0,0,1,.253,5.081V64.283a40.814,40.814,0,0,1-.253,5.081,11.665,11.665,0,0,1-.764,3.123A4.286,4.286,0,0,1,51.167,73.837Z" transform="translate(51.066 -2.01)"/>
        <path id="Path_4" data-name="Path 4" d="M74.114,74.15h-.1l-.1.187H57.634s-.041-.1-.1-.1v-.1h.477a2.674,2.674,0,0,0,1.493-.394,3.107,3.107,0,0,0,1.1-1.451,11.176,11.176,0,0,0,.726-2.985,40.577,40.577,0,0,0,.249-5.017V12.043a40.811,40.811,0,0,0-.249-5.017A10.961,10.961,0,0,0,60.6,4a3.172,3.172,0,0,0-1.1-1.493,2.855,2.855,0,0,0-1.493-.394H57.53v-.1H70.051V64.324a39.249,39.249,0,0,0,.249,4.954,13.329,13.329,0,0,0,.684,2.985,2.815,2.815,0,0,0,1.1,1.493,2.988,2.988,0,0,0,1.451.394Z" transform="translate(60.734 -2.01)" fill="#f2ac57"/>
        <path id="Path_4_-_Outline" data-name="Path 4 - Outline" d="M74.2,74.837H57.3l-.041-.1H57.03v-1.1h.977a2.178,2.178,0,0,0,1.22-.313l.015-.01a2.562,2.562,0,0,0,.9-1.224,10.714,10.714,0,0,0,.687-2.847,39.875,39.875,0,0,0,.245-4.953V12.043a40.45,40.45,0,0,0-.245-4.953,10.48,10.48,0,0,0-.684-2.883l0,0a2.747,2.747,0,0,0-.9-1.267,2.365,2.365,0,0,0-1.235-.323H57.03V1.51H70.551V64.324a38.891,38.891,0,0,0,.244,4.888,12.915,12.915,0,0,0,.655,2.87,2.4,2.4,0,0,0,.877,1.237,2.489,2.489,0,0,0,1.207.33H74.86Zm-14.024-1h11.2a3.927,3.927,0,0,1-.855-1.392,13.873,13.873,0,0,1-.714-3.1,39.838,39.838,0,0,1-.253-5.021V2.51H60.272a4.829,4.829,0,0,1,.782,1.285,11.237,11.237,0,0,1,.766,3.168,41.409,41.409,0,0,1,.253,5.081V64.283a40.82,40.82,0,0,1-.253,5.081,11.666,11.666,0,0,1-.764,3.123A4.286,4.286,0,0,1,60.177,73.837Z" transform="translate(60.734 -2.01)"/>
        <path id="Path_5" data-name="Path 5" d="M83.82,63.345v.1l-.1.1H67.444l-.1-.1v-.1h.58a2.47,2.47,0,0,0,1.389-.394,3.107,3.107,0,0,0,1.1-1.451,11.179,11.179,0,0,0,.726-2.985,40.582,40.582,0,0,0,.249-5.017V22.113a40.815,40.815,0,0,0-.249-5.017,10.962,10.962,0,0,0-.726-3.027,3.172,3.172,0,0,0-1.1-1.493,2.7,2.7,0,0,0-1.389-.394h-.58l.1-.1H79.861V53.5a40.8,40.8,0,0,0,.249,5.017,12.291,12.291,0,0,0,.684,2.985,2.957,2.957,0,0,0,1.1,1.451,2.988,2.988,0,0,0,1.451.394Z" transform="translate(71.26 8.795)" fill="#f2ac57"/>
        <path id="Path_5_-_Outline" data-name="Path 5 - Outline" d="M83.924,64.052H67.237l-.4-.4v-.811h1.08a1.959,1.959,0,0,0,1.116-.313l.015-.01a2.561,2.561,0,0,0,.9-1.224,10.718,10.718,0,0,0,.687-2.847,39.878,39.878,0,0,0,.245-4.953V22.113a40.455,40.455,0,0,0-.245-4.953,10.481,10.481,0,0,0-.684-2.883l0,0a2.747,2.747,0,0,0-.9-1.267,2.206,2.206,0,0,0-1.132-.323H66.133l1.1-1.1H80.361V53.5a40.442,40.442,0,0,0,.245,4.953,11.883,11.883,0,0,0,.651,2.859,2.509,2.509,0,0,0,.888,1.209,2.484,2.484,0,0,0,1.2.326h.977v.811Zm-13.937-1H81.212a3.915,3.915,0,0,1-.881-1.362,12.637,12.637,0,0,1-.718-3.111,41.4,41.4,0,0,1-.253-5.081V12.58H70.082a4.827,4.827,0,0,1,.782,1.284,11.233,11.233,0,0,1,.766,3.169,41.412,41.412,0,0,1,.253,5.081V53.5a40.822,40.822,0,0,1-.253,5.081,11.669,11.669,0,0,1-.764,3.123A4.286,4.286,0,0,1,69.987,63.052Z" transform="translate(71.26 8.795)"/>
        <path id="Path_6" data-name="Path 6" d="M110.486,39.807a13.39,13.39,0,0,1,4.809,10.3,13.038,13.038,0,0,1-1.389,6.074,13.864,13.864,0,0,1-3.939,4.664,18.189,18.189,0,0,1-6.157,3.027,28.187,28.187,0,0,1-7.94,1.057,22.371,22.371,0,0,1-18.2-9.349,6.112,6.112,0,0,1-1.389-4.623,6.451,6.451,0,0,1,2.177-4.333,6.426,6.426,0,0,1,9.246.663,6.293,6.293,0,0,1,1.534,4.726,6.2,6.2,0,0,1-2.218,4.436,6.635,6.635,0,0,1-2.944,1.493,5.949,5.949,0,0,1-3.13-.145c.456.456.891.871,1.347,1.244A10.387,10.387,0,0,0,83.744,60.1a20.674,20.674,0,0,0,12.127,3.856,9.66,9.66,0,0,0,7.857-3.566,14.42,14.42,0,0,0,2.944-9.432,6.876,6.876,0,0,0-3.317-5.721,20.45,20.45,0,0,0-9.2-3.13Q85.662,41.051,80.966,36.8A13.64,13.64,0,0,1,76.24,26.208,13.8,13.8,0,0,1,77.546,20.2a13.048,13.048,0,0,1,3.711-4.664,17.644,17.644,0,0,1,5.721-2.985,24.18,24.18,0,0,1,7.359-1.057,20.992,20.992,0,0,1,6.592,1.016,14.62,14.62,0,0,1,5.721,3.524,3.564,3.564,0,0,1,.684.684,6.13,6.13,0,0,1,1.638,4.726,6.454,6.454,0,0,1-2.218,4.519,6.211,6.211,0,0,1-4.726,1.534,6.454,6.454,0,0,1-4.519-2.218,6.211,6.211,0,0,1-1.534-4.726,6.494,6.494,0,0,1,2.218-4.519,5.892,5.892,0,0,1,2.363-1.347,6.357,6.357,0,0,1,2.653-.187,17.482,17.482,0,0,0-8.852-2.218,8.5,8.5,0,0,0-7.131,3.607c-1.8,2.4-2.695,5.6-2.695,9.577a6.943,6.943,0,0,0,3.027,5.68,18.3,18.3,0,0,0,8.624,3.089q9.328,1.337,14.345,5.576Zm-19.838-18.2.767-.684.58.684-.58,1.824Z" transform="translate(80.81 8.162)" fill="#f2ac57"/>
        <path id="Path_6_-_Outline" data-name="Path 6 - Outline" d="M95.871,65.432a22.872,22.872,0,0,1-18.6-9.547,6.637,6.637,0,0,1-1.488-4.973,6.988,6.988,0,0,1,2.339-4.656l.007-.007a7,7,0,0,1,11.606,5.8,6.711,6.711,0,0,1-2.391,4.781,7.123,7.123,0,0,1-3.165,1.6,6.737,6.737,0,0,1-1.417.154q-.122,0-.243,0l.089.073.01.009A9.858,9.858,0,0,0,84,59.673l.03.019a20.275,20.275,0,0,0,11.84,3.765,9.121,9.121,0,0,0,7.471-3.384,14.013,14.013,0,0,0,2.829-9.114c0-2.091-1.016-3.829-3.106-5.314a20.082,20.082,0,0,0-8.98-3.042,30.833,30.833,0,0,1-7.662-1.885,19.249,19.249,0,0,1-5.793-3.548,14.157,14.157,0,0,1-4.89-10.963,14.334,14.334,0,0,1,1.355-6.227,13.632,13.632,0,0,1,3.851-4.84,18.152,18.152,0,0,1,5.88-3.07,24.824,24.824,0,0,1,7.512-1.081,21.5,21.5,0,0,1,6.749,1.041,15.2,15.2,0,0,1,5.891,3.619,4.087,4.087,0,0,1,.741.743,6.641,6.641,0,0,1,1.753,5.082,6.95,6.95,0,0,1-2.384,4.858l-.007.006a6.678,6.678,0,0,1-4.468,1.679c-.2,0-.413-.008-.621-.025a6.95,6.95,0,0,1-4.855-2.384L97.13,25.6a6.717,6.717,0,0,1-1.654-5.09,7.023,7.023,0,0,1,2.381-4.852,6.4,6.4,0,0,1,2.562-1.458,7.089,7.089,0,0,1,.711-.165,17.784,17.784,0,0,0-6.772-1.259,8.05,8.05,0,0,0-6.731,3.407c-1.722,2.3-2.595,5.417-2.595,9.277a6.474,6.474,0,0,0,2.83,5.282,17.876,17.876,0,0,0,8.389,2.991c6.285.9,11.2,2.815,14.6,5.69l1.044.882h-.167a14.07,14.07,0,0,1,2.623,16.106,14.437,14.437,0,0,1-4.078,4.831,18.543,18.543,0,0,1-6.321,3.11A28.782,28.782,0,0,1,95.871,65.432ZM91.784,12.105a22.121,22.121,0,0,0-4.654.918,17.162,17.162,0,0,0-5.559,2.9A12.473,12.473,0,0,0,78,20.412a13.343,13.343,0,0,0-1.257,5.8,13.2,13.2,0,0,0,4.56,10.22c3.032,2.751,7.375,4.494,12.913,5.183a21.046,21.046,0,0,1,9.432,3.219,7.38,7.38,0,0,1,3.527,6.129,14.979,14.979,0,0,1-3.057,9.749,10.028,10.028,0,0,1-7.179,3.707,27.033,27.033,0,0,0,6.734-1.02,17.572,17.572,0,0,0,5.99-2.941,13.45,13.45,0,0,0,3.8-4.5A12.591,12.591,0,0,0,114.8,50.11a12.96,12.96,0,0,0-4.643-9.931l-.405-.364c-3.238-2.545-7.821-4.257-13.635-5.09a18.827,18.827,0,0,1-8.856-3.186,7.425,7.425,0,0,1-3.223-6.078c0-4.081.94-7.4,2.795-9.877A9.085,9.085,0,0,1,91.784,12.105Zm-12.5,44.739a22.33,22.33,0,0,0,10.47,6.737,21.729,21.729,0,0,1-6.281-3.06,10.848,10.848,0,0,1-1.5-1.094,18.515,18.515,0,0,1-1.379-1.273Zm-.117-.139,1.933.618a5.464,5.464,0,0,0,1.666.264,5.736,5.736,0,0,0,1.206-.132,6.134,6.134,0,0,0,2.723-1.383,5.67,5.67,0,0,0,2.045-4.092,6.06,6.06,0,0,0-5.548-6.494c-.153-.011-.306-.016-.455-.016a6.057,6.057,0,0,0-5.956,5.535,5.6,5.6,0,0,0,1.279,4.259l.021.027Q78.6,56.029,79.165,56.706Zm18.72-31.76a5.981,5.981,0,0,0,4.177,2.049h.006c.183.015.367.022.544.022a5.7,5.7,0,0,0,3.812-1.434,5.981,5.981,0,0,0,2.049-4.177,5.605,5.605,0,0,0-1.509-4.356l-.026-.031a3.081,3.081,0,0,0-.588-.589l-.026-.019-.023-.023a15.642,15.642,0,0,0-1.308-1.144l-1.851-.252a6.183,6.183,0,0,0-.832-.058,5.8,5.8,0,0,0-1.616.23A5.415,5.415,0,0,0,98.53,16.4a5.978,5.978,0,0,0-2.056,4.184v.006A5.676,5.676,0,0,0,97.885,24.946Zm-6.406-.071-1.431-3.4,1.416-1.263,1.091,1.286Z" transform="translate(80.81 8.162)"/>
        <path id="Path_7" data-name="Path 7" d="M112.853,24.934V68.259c0,1.41.041,2.508.1,3.275a11.947,11.947,0,0,0,.187,1.534c.062.249.187.394.394.394h5.68v.767h-6.26a15.455,15.455,0,0,1-4.809-.58,4.549,4.549,0,0,1-2.55-1.928,8.255,8.255,0,0,1-1.016-3.566c-.124-1.472-.187-3.3-.187-5.493V24.934H96.02v-.767h8.375V9.137l8.479-7.027V24.167h6.364v.767h-6.364Z" transform="translate(102.033 -1.903)" fill="#f2ac57"/>
        <path id="Path_7_-_Outline" data-name="Path 7 - Outline" d="M113.373,1.046v22.62h6.364v1.767h-6.385V68.259c0,1.293.035,2.412.1,3.235a10.993,10.993,0,0,0,.173,1.453l0,.015h6.085v1.767h-6.76a15.742,15.742,0,0,1-4.973-.608,5.051,5.051,0,0,1-2.814-2.142,8.711,8.711,0,0,1-1.086-3.782c-.125-1.479-.188-3.341-.188-5.536V25.434H95.52V23.667h8.375V8.9Zm-1,23.387V3.174l-7.479,6.2v53.29c0,2.166.062,4,.185,5.451a7.741,7.741,0,0,0,.945,3.349,4.031,4.031,0,0,0,2.283,1.713,15.031,15.031,0,0,0,4.643.554,1.085,1.085,0,0,1-.293-.54,11.883,11.883,0,0,1-.2-1.615c-.069-.85-.105-2-.105-3.316V24.434Z" transform="translate(102.033 -1.903)"/>
        <path id="Path_8" data-name="Path 8" d="M130.982,11.59q10.821,0,16.542,6.841,5.753,6.841,5.742,19.735T147.524,57.9q-5.753,6.841-16.542,6.841c-7.193,0-12.707-2.28-16.5-6.841s-5.7-11.132-5.7-19.735,1.907-15.174,5.7-19.735,9.287-6.841,16.5-6.841Zm0,52.675c4.229,0,7.463-2.239,9.743-6.7s3.4-10.925,3.4-19.4-1.057-14.345-3.172-18.781q-3.358-7.307-9.971-7.318c-4.415,0-7.442,2.239-9.681,6.7s-3.358,10.925-3.358,19.4S119,52.614,121.114,57.051q3.265,7.214,9.888,7.214Zm.684-42.372.684.684-.684,1.824-.684-1.824Z" transform="translate(115.725 8.269)" fill="#f2ac57"/>
        <path id="Path_8_-_Outline" data-name="Path 8 - Outline" d="M130.982,11.09a25.433,25.433,0,0,1,9.737,1.748,18.488,18.488,0,0,1,7.189,5.272,23.181,23.181,0,0,1,4.406,8.533,41.567,41.567,0,0,1,1.453,11.523,41.568,41.568,0,0,1-1.453,11.523,23.183,23.183,0,0,1-4.407,8.534,18.615,18.615,0,0,1-7.2,5.271,27.891,27.891,0,0,1-19.438,0A18.377,18.377,0,0,1,114.1,58.22a23.36,23.36,0,0,1-4.369-8.532,41.768,41.768,0,0,1-1.447-11.522,41.768,41.768,0,0,1,1.447-11.522,23.36,23.36,0,0,1,4.369-8.532,18.377,18.377,0,0,1,7.161-5.273A25.34,25.34,0,0,1,130.982,11.09Zm4.153,52.863a18.616,18.616,0,0,0,12.006-6.374c3.732-4.439,5.625-10.97,5.625-19.413s-1.892-14.975-5.625-19.413a18.538,18.538,0,0,0-12.031-6.379c2.62,1.117,4.728,3.391,6.3,6.8,2.2,4.609,3.219,10.644,3.219,18.993a66.6,66.6,0,0,1-.852,11.3,29.6,29.6,0,0,1-2.6,8.335,13.785,13.785,0,0,1-4.3,5.2A9.82,9.82,0,0,1,135.135,63.953Zm-14.474-6.692c-2.2-4.609-3.218-10.677-3.218-19.1a67.171,67.171,0,0,1,.847-11.295,30.138,30.138,0,0,1,2.565-8.333,13.566,13.566,0,0,1,4.183-5.2A9.437,9.437,0,0,1,126.7,12.4a18.385,18.385,0,0,0-11.838,6.354c-3.706,4.455-5.585,10.988-5.585,19.415s1.879,14.96,5.585,19.415a18.427,18.427,0,0,0,11.98,6.375C124.249,62.85,122.178,60.611,120.661,57.261Zm10.331,6.5c4.04,0,7.078-2.1,9.288-6.424,2.219-4.338,3.345-10.79,3.345-19.175,0-8.2-.992-14.1-3.123-18.566l0-.006c-2.173-4.728-5.286-7.026-9.517-7.026-4.1,0-7.034,2.04-9.234,6.42s-3.305,10.818-3.305,19.179c0,8.267.992,14.2,3.123,18.67l0,.009C123.676,61.5,126.758,63.761,130.992,63.765Zm.674-42.579,1.265,1.265-1.265,3.374L130.4,22.451Z" transform="translate(115.725 8.269)"/>
      </g>
      <path id="Path_9" data-name="Path 9" d="M86.148,9.332,85.4,1.6a11.324,11.324,0,0,1-4.934,4.187c-1.969.974-4.042,1.658-5.991,2.653a12.574,12.574,0,0,0-3.5,2.55,7.843,7.843,0,0,0-1.244,1.721,8.32,8.32,0,0,0-.808,2.218c-.062.352-.5,2.674.415,4.022a6.94,6.94,0,0,1,1.285-1.016A10.751,10.751,0,0,1,72.964,16.9a15.612,15.612,0,0,0,3.255-1.41,5.909,5.909,0,0,0,2.342-1.928,4.939,4.939,0,0,0,.352-2.26C79,9.457,80.323,8.855,82,8.814c.083,0,.726-.041.788.041.041.083-.373.083-.435.083a2.084,2.084,0,0,0-1.969,1.368,10.529,10.529,0,0,0-.249,2.28c-.228,1.7-1.949,2.571-3.338,3.3-1.638.871-3.524,1.14-5.1,2.156a6.99,6.99,0,0,0-1.679,1.534c.85.435,2.094-.083,5.929-.435,3.628-.332,3.959-.1,5.473-.6a6.919,6.919,0,0,0,4.208-3.358c.871-1.783.7-3.876.518-5.846Z" transform="translate(72.788 -1.6)" fill="#1c6758"/>
      <path id="Path_9_-_Outline" data-name="Path 9 - Outline" d="M85.751.008l.9,9.276c.175,1.849.393,4.148-.567,6.113a7.409,7.409,0,0,1-4.5,3.615,8.59,8.59,0,0,1-2.7.422c-.653.034-1.546.08-2.876.2-1.432.132-2.48.284-3.323.406a13.961,13.961,0,0,1-1.828.2,2.234,2.234,0,0,1-1.051-.221l-.552-.283.013-.015-.331-.488c-.877-1.3-.688-3.292-.5-4.367l.005-.029a8.616,8.616,0,0,1,.819-2.281l.04-.078a8.266,8.266,0,0,1,1.319-1.826A12.883,12.883,0,0,1,74.248,8c1.035-.529,2.112-.974,3.153-1.4.943-.39,1.917-.793,2.845-1.252A10.65,10.65,0,0,0,84.97,1.348ZM71,19.235c.378-.017.874-.089,1.529-.184.809-.117,1.917-.278,3.375-.412,1.349-.123,2.254-.17,2.915-.2a7.644,7.644,0,0,0,2.447-.374l0,0a6.413,6.413,0,0,0,3.91-3.1c.836-1.712.633-3.857.47-5.58L85.035,3a12.933,12.933,0,0,1-4.344,3.24c-.958.474-1.949.884-2.906,1.28-1.023.423-2.081.861-3.079,1.371a12.071,12.071,0,0,0-3.363,2.443l0,0a7.291,7.291,0,0,0-1.163,1.607l-.033.065a7.678,7.678,0,0,0-.728,2.015l0,.018a6.393,6.393,0,0,0,.078,3.1,7.214,7.214,0,0,1,.871-.625,11.278,11.278,0,0,1,2.447-1.086,15.311,15.311,0,0,0,3.155-1.364l.273-.162a4.854,4.854,0,0,0,1.886-1.573,3.789,3.789,0,0,0,.287-1.73c0-.1,0-.2.006-.307v-.009c.059-1.314.727-2.895,3.576-2.965H82l.061,0c.084,0,.211-.008.341-.008.327,0,.611.019.786.252l.027.036.02.04a.52.52,0,0,1-.022.509c-.17.275-.5.3-.86.3a1.592,1.592,0,0,0-1.5,1.044,4.016,4.016,0,0,0-.164,1.278,7.984,7.984,0,0,1-.057.9c-.258,1.925-2.072,2.872-3.53,3.633l-.072.037a16.2,16.2,0,0,1-2.358.955,12.2,12.2,0,0,0-2.7,1.178l-.006,0A5.555,5.555,0,0,0,71,19.235Zm7.968-5.376a2.407,2.407,0,0,0,.673-1.339,7.13,7.13,0,0,0,.048-.786,4.821,4.821,0,0,1,.227-1.6,2.7,2.7,0,0,1,.113-.259,1.868,1.868,0,0,0-.616,1.446c0,.1,0,.194-.006.292A4.664,4.664,0,0,1,79,13.8Z" transform="translate(72.788 -1.6)"/>
    </g>
  </g>
</svg>
