<svg xmlns="http://www.w3.org/2000/svg" xmlns:xlink="http://www.w3.org/1999/xlink" width="150.875" height="177.885" viewBox="0 0 150.875 177.885"><defs><clipPath id="a"><rect width="83.438" height="157.231" fill="none"/></clipPath></defs><g transform="translate(0 41.719) rotate(-30)"><g transform="translate(0 0)" clip-path="url(#a)"><path d="M26.971,79.36A55.518,55.518,0,0,1,34.08,90.944a44.451,44.451,0,0,1,2.575,7.171c.065-5.157.026-10.319-.423-15.459A136.732,136.732,0,0,0,33.582,66.9a104.5,104.5,0,0,1-2.121-15.45c-.569-10.327.251-20.691-.648-31A68.555,68.555,0,0,0,28.365,6.882,46.126,46.126,0,0,0,25.943.44c-.037-.075-.079-.146-.116-.221-.638,3.325.014,7.421.02,10.63A59.06,59.06,0,0,1,21.6,33.3c-3.363,8.376-6.458,16.8-9.6,25.263-.683,1.84-1.414,3.662-2.159,5.479A72.505,72.505,0,0,1,26.971,79.36" transform="translate(5.133 0.114)" fill="#2F094A"/><path d="M24.05,7.693a75.465,75.465,0,0,1,2.372,15.254c.665,10.569-.215,21.179.68,31.739A136.214,136.214,0,0,0,29.78,70.6a106.277,106.277,0,0,1,2.129,15.846c.288,5.414.219,10.837.123,16.255a142.694,142.694,0,0,1-.844,15.923c-.177,1.348-.408,2.684-.677,4.009q.388-1.1.8-2.2a80.918,80.918,0,0,1,3.431-7.975c4.553-9.13,10.834-17.515,19.07-23.627a51.39,51.39,0,0,1,13.314-7.165,50.834,50.834,0,0,1,4.959-1.5c-1.4-20.56-8.56-39.463-23.658-54.325C41.866,19.394,34.24,14.21,27.633,7.8a42.52,42.52,0,0,1-5.344-6.217C21.952,1.1,21.615.525,21.244,0c.067.143.138.283.2.428a49.594,49.594,0,0,1,2.6,7.266" transform="translate(11.081 0)" fill="#2F094A"/><path d="M41.282,91.933c.313-4.089.4-8.2.458-12.3-.42-1.73-.84-3.459-1.389-5.157a49.1,49.1,0,0,0-2.914-7.043A62.417,62.417,0,0,0,19.816,46.687c-1.713-1.334-3.489-2.587-5.3-3.787-2.74,6.564-5.75,13.02-8.287,19.667C.423,77.792-4.559,97.75,6.939,111.522c5,5.992,12.007,11.9,20.179,12.062a14.969,14.969,0,0,0,5.032-.869c1.864-4.685,4.006-9.257,5.653-14.031a66.8,66.8,0,0,0,3.48-16.751" transform="translate(0 22.376)" fill="#2F094A"/><path d="M41.987,74.088a76.829,76.829,0,0,0-7.705,13.02c-1.108,2.354-2.162,4.731-3.1,7.156-.89,2.281-1.649,4.606-2.611,6.858a.093.093,0,0,1-.132.05c-.453,1.458-.934,2.908-1.473,4.343a105.19,105.19,0,0,1-4.93,11.216l.335-.117a59.8,59.8,0,0,0,1.643,12.243.688.688,0,0,0,1.345-.183c-.2-4.181-.3-8.358-.227-12.533,1.517.785,4.763.746,6.109.814,7.2.361,14.126-2.855,19.559-7.381,14.756-12.3,21.226-31.147,21.15-50.056-.008-2.03-.087-4.043-.2-6.044A45.717,45.717,0,0,0,65.3,55.526,55.117,55.117,0,0,0,41.987,74.088" transform="translate(11.491 27.891)" fill="#2F094A"/></g></g></svg>