<svg xmlns="http://www.w3.org/2000/svg" xmlns:xlink="http://www.w3.org/1999/xlink" width="190.288" height="194.056" viewBox="0 0 190.288 194.056"><defs><clipPath id="a"><rect width="135.532" height="145.827" fill="none"/></clipPath></defs><g transform="translate(72.913) rotate(30)"><g clip-path="url(#a)"><path d="M17.829,72.762c2.878.506,5.749,1.079,8.592,1.755a84.387,84.387,0,0,1,16.221,5.5c5.14,2.4,9.965,5.405,15.033,7.944,4.4,2.2,9.638,4.712,14.676,3.761.083-.027.165-.061.247-.086a71.34,71.34,0,0,1,.292-8.36,57.409,57.409,0,0,0-2.834-21.953c-2.316-7.173-5.733-13.973-9.168-20.661-3.353-6.53-6.8-13.031-9.512-19.863C48.783,14.268,46.688,7.214,46.526.131c-.043-.046-.09-.085-.133-.131-1.6,2.166-1.4,6.286-1.785,8.957-.663,4.6-1.532,9.187-1.561,13.847-.054,8.416,2.389,16.092,6.017,23.637,4.5,9.369,11.821,17.2,16.539,26.509a65.35,65.35,0,0,1,4.872,12.535q.282,2.626.491,5.256c-2-4.048-5.19-7.843-7.835-11.214-4.756-6.062-9.758-10.913-17.063-13.665-6.959-2.621-15.955-4.28-23.391-3.138C15.361,63.848,8.536,68.351,2,71.615a13.28,13.28,0,0,0-1.671.96,52.542,52.542,0,0,1,8.529-.8,53.776,53.776,0,0,1,8.97.986" transform="translate(0.055)" fill="#387353"/><path d="M67.042,86.948a19.211,19.211,0,0,1-3.258-4.685c.182.875.4,1.746.62,2.621a28.575,28.575,0,0,1,.625,3.079c.453,1.518.916,3.041,1.429,4.579,1.515,4.539,4.341,10.038,8.552,12.663,4,2.494,8.864,3.306,12.716,6.039a75.643,75.643,0,0,0-12.39-16.51c-2.672-2.69-5.735-4.99-8.294-7.787" transform="translate(10.646 13.731)" fill="#387353"/><path d="M66.294,79.189c-.113.033-.226.067-.34.095a19.6,19.6,0,0,0-3.707,2.089,25.752,25.752,0,0,0-4.215,4c-2.519,2.943-4.505,6.273-6.744,9.424a77.458,77.458,0,0,1-6.51,7.979,74.248,74.248,0,0,1-6.388,6.06,10.615,10.615,0,0,1,1.471-.676c1.987-.649,3.983-.222,6.034-.438,5.462-.573,9.193-4.99,12.193-9.188,2.417-3.381,5.185-6.768,6.839-10.627.063-.147.107-.3.167-.45.009.375.029.749.036,1.125l-.1.887c.022-.165.078-.327.105-.491q.126,8.355-.494,16.713a138.675,138.675,0,0,1-4.542,26.3c-.141.517.65.889.893.376,3.316-7.019,4.765-14.744,5.626-22.419a160.541,160.541,0,0,0,.829-23.672c-.012-.326-.035-.65-.053-.976-.211-.748-.414-1.484-.572-2.2a26.433,26.433,0,0,1-.531-3.906" transform="translate(6.408 13.218)" fill="#387353"/><path d="M119.279,70.878a20.72,20.72,0,0,0-6.178-3,24.253,24.253,0,0,0-7.55-.721,43.036,43.036,0,0,0-15.075,2.914,116.367,116.367,0,0,0-13.838,7.032c-3.97,2.308-8.328,4.479-13.034,3.962a17.124,17.124,0,0,0,2,4.711A24.844,24.844,0,0,0,69.723,90.5c2.724,2.553,5.555,4.949,8.095,7.692a73.377,73.377,0,0,1,11.775,16.97c.285-3.581,1.7-6.527,1.144-10.291-.72-4.853-3.9-8.767-7.458-11.939-1.371-1.219-11.5-8.964-17.225-10.715a68.281,68.281,0,0,1,11.729,2.738c7.2,2.326,16.334,1.67,23.432-.883,4.822-1.734,8.958-4.907,13.564-7.1,3.3-1.574,5.963-1.647,9.345-1.777a29.69,29.69,0,0,0-4.845-4.316" transform="translate(10.616 11.205)" fill="#387353"/><path d="M46.717,23.81c6.047,13.7,14.513,26.307,18.807,40.764a58.988,58.988,0,0,1,2.183,10.736,65.765,65.765,0,0,1-.214,11.661c-.1,1.412-.24,2.845-.264,4.271a.261.261,0,0,1,.31.209c5.87.5,10.879-3.051,15.78-5.77,2.286-1.268,4.654-2.388,7.017-3.507a52.237,52.237,0,0,1,7.14-2.915,39.91,39.91,0,0,1,7.45-1.422,52.155,52.155,0,0,1,7.939-.3,23.979,23.979,0,0,1,15.926,7.7c-.513-1.848-2.3-3.669-3.28-5.1a31.856,31.856,0,0,0-7.186-7.683c-6.727-4.979-14.117-6.553-22.332-5.362C87.667,68.3,80.149,73.909,74.972,80.325c-1.547,1.917-3.54,4.147-5.21,6.543,1.04-3.959,1.738-8.1,2.633-12.005,2.365-10.31,1.924-21.712-.123-32.052-2.256-11.394-6.886-21.841-15.543-29.762C51.6,8.353,45.248,5.532,40.382.573a62.628,62.628,0,0,0,2,11.407,88.162,88.162,0,0,0,4.335,11.83" transform="translate(6.74 0.096)" fill="#387353"/><path d="M58.542,95.006A66.753,66.753,0,0,1,65.4,86.061a22.759,22.759,0,0,1,4.642-3.714,16.11,16.11,0,0,1-4.486-.645,47.368,47.368,0,0,1-8.636-3.582c-5.1-2.575-9.962-5.608-15.162-7.99a85.406,85.406,0,0,0-16.7-5.468c-5.916-1.341-12.023-2.526-18.1-1.815C4.622,63.121,2.308,63.558,0,64c.973.671,3.085,1.245,4.623,2.342C9.7,69.969,12.563,76.3,17.37,80.4,29.13,90.443,43.506,88.5,57.5,86.094c.09-.015.175-.041.265-.057a33.33,33.33,0,0,0-8.818,8.42c-3.141,4.29-5.872,11.134-5.453,16.732.153-.123.314-.236.467-.359A78.208,78.208,0,0,0,58.542,95.006" transform="translate(0 10.454)" fill="#387353"/></g></g></svg>