<svg xmlns="http://www.w3.org/2000/svg" xmlns:xlink="http://www.w3.org/1999/xlink" width="130.823" height="138.749" viewBox="0 0 130.823 138.749"><defs><clipPath id="a"><rect width="87.843" height="109.497" transform="translate(0 0)" fill="none"/></clipPath></defs><g transform="translate(0 43.922) rotate(-30)"><g clip-path="url(#a)"><path d="M53.818,10.243C51.344,7.567,49,4.779,46.573,2.063,46.01,1.433,45.512.5,44.739.149a64.859,64.859,0,0,0-2.584,11.372,75.3,75.3,0,0,0-.4,11.879C42.305,37.754,46.005,51.807,46,66.2a61.057,61.057,0,0,1-3.426,20.931c-1.222,3.361-2.376,6.692-2.067,10.327.005.062.017.123.023.185a24.133,24.133,0,0,0,3.871,3.623c4.494,3.465,11.77,4.526,17.255,4.721,6.025.214,12.917-1.533,17.485-5.6C90.931,89.9,88.8,72.707,84.058,59.29c-6.486-18.357-17.082-34.814-30.24-49.047" fill="#F2AC57"/><path d="M41.406,85.282c5.042-13.895,2.954-28.938,1.292-43.25a178.787,178.787,0,0,1-1.644-21.567A72.634,72.634,0,0,1,41.83,9.9,42.12,42.12,0,0,1,44.4.042,1.353,1.353,0,0,0,44.151,0c-2.332-.065-5.427,5.741-6.489,7.189-5.545,7.56-10.355,15.569-15.495,23.394C16.289,39.533,10.16,48.5,5.941,58.378,1.651,68.422-2.389,80.634,1.7,91.446c3.437,9.094,14.051,15.577,23.766,13.457,3.4-.741,5.79-2.962,8.263-5.252a25.6,25.6,0,0,0,3.206-3.377,45.962,45.962,0,0,0,1.16,12.881.484.484,0,0,0,.947-.128c-.179-3.75-.228-7.5-.082-11.238-.048-.29-.1-.578-.138-.872-.466-4.071,1.229-7.9,2.586-11.635" fill="#F2AC57"/></g></g></svg>